<svg width="19" height="20" viewBox="0 0 19 20" fill="none" xmlns="http://www.w3.org/2000/svg">
<path d="M16.9643 0.416748H2.03571C1.49581 0.416748 0.978017 0.633106 0.596247 1.01823C0.214476 1.40334 0 1.92568 0 2.47032L0 17.5298C0 18.0745 0.214476 18.5968 0.596247 18.9819C0.978017 19.3671 1.49581 19.5834 2.03571 19.5834H7.85658V13.0672H5.18471V10.0001H7.85658V7.66243C7.85658 5.00349 9.42578 3.53475 11.8292 3.53475C12.9802 3.53475 14.1838 3.74182 14.1838 3.74182V6.35157H12.8577C11.551 6.35157 11.1434 7.16958 11.1434 8.00855V10.0001H14.0604L13.5939 13.0672H11.1434V19.5834H16.9643C17.5042 19.5834 18.022 19.3671 18.4038 18.9819C18.7855 18.5968 19 18.0745 19 17.5298V2.47032C19 1.92568 18.7855 1.40334 18.4038 1.01823C18.022 0.633106 17.5042 0.416748 16.9643 0.416748Z" fill="#59ABB0"/>
</svg>
