<svg width="20" height="20" viewBox="0 0 20 20" fill="none" xmlns="http://www.w3.org/2000/svg">
<path d="M19.4293 14.1327L15.0543 12.2577C14.8674 12.1781 14.6597 12.1613 14.4624 12.2099C14.2652 12.2585 14.089 12.3699 13.9605 12.5272L12.023 14.8944C8.98232 13.4607 6.53524 11.0137 5.10156 7.97294L7.46875 6.03544C7.62644 5.90719 7.73804 5.73105 7.78668 5.5337C7.83531 5.33635 7.81832 5.12852 7.73828 4.94169L5.86328 0.566687C5.77543 0.365284 5.62007 0.200845 5.42397 0.101725C5.22787 0.00260553 5.00332 -0.0249826 4.78906 0.0237181L0.726562 0.961218C0.519988 1.00892 0.335682 1.12523 0.203725 1.29117C0.0717677 1.45711 -4.75863e-05 1.66288 2.36571e-08 1.87489C2.36571e-08 11.8944 8.12109 19.9999 18.125 19.9999C18.3371 20 18.5429 19.9283 18.709 19.7963C18.875 19.6643 18.9913 19.48 19.0391 19.2733L19.9766 15.2108C20.025 14.9955 19.9968 14.7701 19.8969 14.5733C19.797 14.3765 19.6317 14.2207 19.4293 14.1327Z" fill="#59ABB0"/>
</svg>
