<svg width="23" height="20" viewBox="0 0 23 20" fill="none" xmlns="http://www.w3.org/2000/svg">
<path d="M11.5 0C8.72123 0 6.46875 2.20352 6.46875 4.92188C6.46875 7.11953 9.75703 11.125 11.0168 12.5789C11.272 12.8734 11.7284 12.8734 11.9832 12.5789C13.243 11.125 16.5312 7.11953 16.5312 4.92188C16.5312 2.20352 14.2788 0 11.5 0ZM11.5 6.5625C10.5736 6.5625 9.82292 5.82812 9.82292 4.92188C9.82292 4.01562 10.5736 3.28125 11.5 3.28125C12.4264 3.28125 13.1771 4.01562 13.1771 4.92188C13.1771 5.82812 12.4264 6.5625 11.5 6.5625ZM0.803403 8.43555C0.566286 8.52833 0.363021 8.68847 0.219822 8.89533C0.0766222 9.10218 5.67895e-05 9.34627 0 9.59609L0 19.3742C0 19.8164 0.456406 20.1187 0.876076 19.9547L6.38889 17.5V8.39531C6.0359 7.77109 5.7472 7.16328 5.54036 6.58203L0.803403 8.43555ZM11.5 14.0496C10.9382 14.0496 10.4067 13.8082 10.0421 13.3871C9.2571 12.4809 8.42215 11.4488 7.66667 10.3902V17.4996L15.3333 19.9996V10.3906C14.5778 11.4488 13.7433 12.4812 12.9579 13.3875C12.5933 13.8082 12.0618 14.0496 11.5 14.0496ZM22.1239 6.29531L16.6111 8.75V20L22.1966 17.8145C22.4337 17.7217 22.637 17.5616 22.7802 17.3547C22.9235 17.1479 23 16.9037 23 16.6539V6.87578C23 6.43359 22.5436 6.13125 22.1239 6.29531Z" fill="#59ABB0"/>
</svg>
