<svg width="200" height="200" viewBox="0 0 200 200" fill="none" xmlns="http://www.w3.org/2000/svg">
<path d="M100 0C80.2219 0 60.8879 5.8649 44.443 16.853C27.9981 27.8412 15.1809 43.459 7.61209 61.7316C0.0433284 80.0042 -1.937 100.111 1.92152 119.509C5.78004 138.907 15.3041 156.725 29.2894 170.711C43.2746 184.696 61.0929 194.22 80.491 198.078C99.8891 201.937 119.996 199.957 138.268 192.388C156.541 184.819 172.159 172.002 183.147 155.557C194.135 139.112 200 119.778 200 100C200 86.8678 197.413 73.8642 192.388 61.7316C187.362 49.5991 179.997 38.5752 170.711 29.2893C161.425 20.0035 150.401 12.6375 138.268 7.61205C126.136 2.58658 113.132 0 100 0V0ZM143 76.1L97.3 136.1C96.3684 137.31 95.1721 138.291 93.8027 138.967C92.4333 139.643 90.9272 139.996 89.4 140C87.8811 140.008 86.3803 139.67 85.0114 139.012C83.6426 138.353 82.4418 137.392 81.5 136.2L57.1 105.1C56.2924 104.063 55.697 102.876 55.3479 101.609C54.9987 100.341 54.9027 99.0172 55.0652 97.7125C55.2277 96.4079 55.6456 95.148 56.295 94.0048C56.9444 92.8617 57.8126 91.8576 58.85 91.05C60.9452 89.4189 63.6026 88.6869 66.2375 89.0151C67.5421 89.1776 68.802 89.5955 69.9452 90.2449C71.0883 90.8943 72.0924 91.7625 72.9 92.8L89.2 113.6L127 63.6C127.801 62.5494 128.801 61.6669 129.943 61.0028C131.085 60.3388 132.347 59.9062 133.657 59.7298C134.966 59.5533 136.297 59.6365 137.574 59.9746C138.851 60.3126 140.049 60.8989 141.1 61.7C142.151 62.501 143.033 63.5012 143.697 64.6433C144.361 65.7854 144.794 67.0472 144.97 68.3565C145.147 69.6658 145.063 70.997 144.725 72.2742C144.387 73.5513 143.801 74.7494 143 75.8V76.1Z" fill="#59ABB0"/>
</svg>
