<svg width="19" height="20" viewBox="0 0 19 20" fill="none" xmlns="http://www.w3.org/2000/svg">
<path d="M9.50424 5.07999C6.80692 5.07999 4.63125 7.27474 4.63125 9.99572C4.63125 12.7167 6.80692 14.9115 9.50424 14.9115C12.2016 14.9115 14.3772 12.7167 14.3772 9.99572C14.3772 7.27474 12.2016 5.07999 9.50424 5.07999ZM9.50424 13.1916C7.76116 13.1916 6.33616 11.7584 6.33616 9.99572C6.33616 8.23307 7.75692 6.79985 9.50424 6.79985C11.2516 6.79985 12.6723 8.23307 12.6723 9.99572C12.6723 11.7584 11.2473 13.1916 9.50424 13.1916ZM15.7132 4.87891C15.7132 5.51637 15.2042 6.02548 14.5766 6.02548C13.9446 6.02548 13.44 5.51209 13.44 4.87891C13.44 4.24572 13.9489 3.73233 14.5766 3.73233C15.2042 3.73233 15.7132 4.24572 15.7132 4.87891ZM18.9406 6.0426C18.8685 4.5067 18.5208 3.14621 17.4054 2.0253C16.2942 0.90439 14.9455 0.553571 13.423 0.476563C11.8538 0.386719 7.15045 0.386719 5.58125 0.476563C4.06295 0.549293 2.71429 0.900112 1.59888 2.02102C0.483482 3.14193 0.139955 4.50242 0.0636154 6.03832C-0.0254471 7.62128 -0.0254471 12.3659 0.0636154 13.9488C0.135714 15.4847 0.483482 16.8452 1.59888 17.9661C2.71429 19.0871 4.0587 19.4379 5.58125 19.5149C7.15045 19.6047 11.8538 19.6047 13.423 19.5149C14.9455 19.4422 16.2942 19.0913 17.4054 17.9661C18.5165 16.8452 18.8643 15.4847 18.9406 13.9488C19.0297 12.3659 19.0297 7.62556 18.9406 6.0426ZM16.9134 15.6473C16.5826 16.4859 15.9422 17.1319 15.1067 17.4699C13.8556 17.9704 10.8868 17.8549 9.50424 17.8549C8.12165 17.8549 5.14866 17.9661 3.90179 17.4699C3.07054 17.1362 2.43013 16.4901 2.09509 15.6473C1.59888 14.3852 1.71339 11.3904 1.71339 9.99572C1.71339 8.60101 1.60312 5.60193 2.09509 4.34412C2.42589 3.50558 3.06629 2.85956 3.90179 2.52158C5.1529 2.02102 8.12165 2.13653 9.50424 2.13653C10.8868 2.13653 13.8598 2.0253 15.1067 2.52158C15.9379 2.85528 16.5783 3.5013 16.9134 4.34412C17.4096 5.60621 17.2951 8.60101 17.2951 9.99572C17.2951 11.3904 17.4096 14.3895 16.9134 15.6473Z" fill="#59ABB0"/>
</svg>
